<svg id="Layer_1" data-name="Layer 1" xmlns="http://www.w3.org/2000/svg" viewBox="0 0 1000 1000"><title>moustache</title><path d="M327.18,727.53c-12.49,13.17-21.8,14.48-35.5,5.55-17,11.87-20.32,11.87-39.15,0-16.91,12.06-17.25,12.07-33.83.62-15.92,9-26.39,7.58-38.4-5.14-16.75,10.68-19,10.28-35.25-3.23-2.23-1.86-6.91-.43-10.09-1.55-7.11-2.52-17.68-4-20-9-3.1-6.63-2.94-19.51,1.56-24.14a726.41,726.41,0,0,1,61-55.54c10.92-9,24.12-8,38.87-6.39,28.07,3.09,57,2.49,85.12-.49,14.71-1.56,28-2.4,38.82,7,18.25,15.89,35.47,33,52.36,50.4,7.22,7.42,9.2,17.81,2.94,26.68s-15.21,14.21-27.33,10.55c-2.76-.83-7,.47-9.56,2.21C345.64,733.86,340.62,734.51,327.18,727.53Z"/><path d="M699.43,460.74c-34.22,41.35-99.52,33.41-131.62,5.36-11.58-10.13-16.05-25.64-10.26-38.46,4.75-10.52,16.53-17.06,28-14.9,10,1.89,16.77,7.88,18.24,18.27,1.08,7.69-2.34,16.22-9.57,19.89a15.18,15.18,0,0,1-14.44-.66c-2.07-1.33-3.27-3.67-4.1-6-.57-1.59-2.89-17.05,2.38-13.82a3.47,3.47,0,0,1,1.24,2.4c.76,3.64,1.75,7.17,5.3,9.06,8,4.29,12-5.6,8.91-12.11-3.68-7.63-16.27-7-21-1.12-3.55,4.45-2.79,11.06-1.09,16.08,2.29,6.74,5.93,11.1,13.17,13.23,13,3.83,23.32-4.2,32.13-13.19,5.88-6,11-12.79,17.14-18.51,5.79-5.4,11.93-10.87,18.86-14.52,17.75-9.33,32.85-5.44,46.48,10.71,16-18.32,35.57-21,54.84-5.71,11.11,8.82,20.37,20,30.38,30.15,8.44,8.6,18.74,14.67,30.41,10.95,6-1.91,13.83-6.89,14.29-13.55.41-5.88-.95-18.87-8-20.79-6.43-1.75-14.63,2.67-15.27,9.45-.23,2.44-.22,5,1,7.17a7.13,7.13,0,0,0,4.88,3.45c6.15,1.09,5.75-4.85,9.3-7.68a2.15,2.15,0,0,1,2.42-.48,2.28,2.28,0,0,1,.76,1.59c1.15,7.21-5.69,12.39-12.08,14.09-3.9,1-10.15-1.83-12.88-4.63-3.26-3.34-4.55-8.13-4.38-12.71.4-10.81,6.22-18.33,16.92-20.79,19.35-4.46,36.87,14.65,31.16,34-6.56,22.16-25.47,31.09-44.67,37C761.82,495.06,727.5,491.93,699.43,460.74Z"/><path d="M475.21,119.92c15.6-20.1,36.48-23.51,56.68-8.4,10.31,7.71,18.71,18,28.1,26.93,5.46,5.2,10.7,10.83,16.88,15,13.37,9.07,25.42,6.75,44.2-7.6,2.35,14.33-6.85,22.12-16.35,28.84-20.51,14.5-44.1,18-68.49,16-24.15-2-46.1-9.33-60.3-31.2-35,37.75-76.05,38.42-119.42,21.81-19.66-7.53-27.85-19.84-27.44-36.26,2.61,2.46,4.54,4.16,6.35,6,10,10.13,27.58,11,40.17.44,10.24-8.6,18.58-19.43,28.65-28.25,7.77-6.81,16.19-13.89,25.6-17.6C449.19,98,460.66,102.38,475.21,119.92Z"/><path d="M604.17,899.63c-.46,3.13-.22,4.93-1,6.08-10.54,16-2.14,31.92,17.51,34.11,21.33,2.38,37.06-9.15,52.37-20.8,15.7-12,31.19-19.85,50.72-9.06,1.84,1,5.44,0,7.72-1.12,13.88-6.75,26.82-5,39.28,3.53,9.7,6.62,18.88,14.38,29.37,19.36,9.11,4.33,19.69,7.44,29.68,7.61,21.51.37,29.84-15.51,19.48-34.5-.48-.88,0-2.31.1-3.5,28,2.62,43.08,36.79,26.74,59.9-19.23,27.19-58,31.7-84.49,9.61-11-9.14-21.58-18.73-32.26-28.22C732.84,919,717.75,919.41,692,943.8c-10.36,9.8-20.92,19.53-32.27,28.13-20.14,15.26-42.11,17.25-64.76,5.67-15.76-8.06-25.78-25.53-24.26-41.05C572.44,918.54,582.78,906.71,604.17,899.63Z"/><path d="M224,214c28.33-19.16,51.46-18.33,65.95,3,7,10.32,11.76,22.16,17.75,33.2,4.44,8.19,9.21,16.19,13.94,24.46,17-11.95,18.48-17.73,10.83-36.09,16.39,1.24,31.08,25.94,24.4,41C349,297.25,327.3,306.44,310.62,297c-11.44-6.46-21.06-16.3-31-25.14-5.31-4.71-9.5-10.66-14.48-15.76-15.14-15.49-15.64-15.19-35.23-5.28-3.4,1.72-9.52.52-13.31-1.43-15.74-8.08-18.3-8.19-30.52,4-11,11-21.26,22.68-32.49,33.39-21.41,20.43-50.09,17.46-61.59-5.93-7.41-15.07,6.92-40.43,25.43-42.85-6.83,9.79-8.59,19.16-1,28.85,5.41,6.89,10.28,8.71,15.34.19,3-5,5.45-10.35,8.1-15.56,4.75-9.33,8.87-19,14.31-27.95,16.07-26.29,38.22-30.78,64-13.53C219.86,211.21,221.57,212.4,224,214Z"/><path d="M104.77,975.44c1.73-1.11,4.42-1.29,6.51-2a117.76,117.76,0,0,0,11.57-4.68,155.23,155.23,0,0,0,21.8-12.61c13.75-9.38,26.3-20.35,39.29-30.7,8.84-7,17.86-14.07,27.6-19.74,13.75-8,27.83-9.5,41,4.14,17.43-16.93,34.23-10,50.41,2,11.11,8.26,21.92,17,32.57,25.81,11,9.16,22.37,18,34.84,25.16a125,125,0,0,0,19.79,9.2c2.79,1,8.52,1.48,10.67,3.44,3.25,3-.92,4.24-3.84,4.14-5.41-.19-11-.28-16.27-1.56-4.56-1.1-9-3.94-13.34-5.83-9.73-4.22-19.48-8.39-29.17-12.69-19.31-8.56-38.44-17.62-56.57-28.5-21.24-12.75-36.06-12.81-57.26.1-29.82,18.16-62.74,31.36-94.81,45.62a52.66,52.66,0,0,1-13.17,4.16c-1.48.2-13.28.24-13.32-2.07A3.65,3.65,0,0,1,104.77,975.44Z"/><path d="M869.41,768.81c-2.08-33-23.84-49.38-49.75-62.19-8.24-4.07-17.2-6.71-25.87-9.9-28.14-10.35-51.07-27.21-66.23-53.07-7.42,8.77-14.22,18-22.26,26-13.34,13.27-29.88,21.37-47.45,28-13.73,5.16-27.53,10.93-39.95,18.62-20.21,12.5-33.71,29.92-32.45,55.82-.56-5.1-1.34-10.18-1.61-15.29-.29-5.5-.34-11-.09-16.53,2.07-45.54,19.11-82.77,60.79-105.11,30.37-16.28,63.46-22,97.44-18.08,18.44,2.1,37.24,6.07,54.45,12.84,45.55,17.91,68,53.94,72.79,101.52C870.47,743.77,869.41,756.34,869.41,768.81Z"/><path d="M569.11,570.73c-10.55.38-19.11-5.83-21.16-14.88-1.61-7.13,3.36-15.33,12.52-19.2,15-6.32,29-3.13,41.92,5.66,13.36,9.07,16.92,22.55,15.12,37.6-2.58,21.68-20.82,36.31-46.31,37.84-30.3,1.81-58.35-7.17-85.66-18.76-7.22-3.06-12.91-3.36-20.28-.15-27,11.76-54.88,20.82-84.87,18.72A71,71,0,0,1,356,611.24c-19.85-9.22-27.89-30-21-51.23,5.69-17.43,27-29.64,46.44-26.4,8.46,1.41,15,6,17.94,14.2,2.34,6.59,1,13.28-4.25,18-3.34,3-8.06,4.46-12.59,5.74,5.75-9.18,5.89-12.33.19-16.63-7.92-6-15.57-5.14-20.77,2.55-4.29,6.34-6.4,13.39-2.36,20.47,4.69,8.23,12.56,11.13,21.72,10.4,8.5-.67,15.32-5.05,20.29-11.61,18.18-24,41.93-27.53,69.17-19.88,3.11.87,6.9.45,10.12-.36,13.57-3.42,27.38-5.7,40.56-.12,8,3.4,15.15,9.2,22.19,14.56,4.32,3.29,7.41,8.17,11.62,11.65a24.51,24.51,0,0,0,22.56,5.13c6.89-1.78,12.66-5.67,14.51-12.8,2-7.8-.15-15.21-6.46-20.35a14.69,14.69,0,0,0-10.15-3C563.91,553.17,561.16,561,569.11,570.73Z"/><path d="M112,51.08c18.39,21.61,50.19,21.78,68.37.8,10.56-12.18,20.61-24.65,36-31a75.33,75.33,0,0,1,12.74-4.33c11.58-2.45,16.82-.4,24.19,8.68.46-.06,1.06.05,1.35-.2,15.46-13.34,28.54-13.6,43.94.09,7.08,6.29,13.3,13.59,19.63,20.69,22.87,25.64,44.79,27.79,72.19,6.93.73-.55,1.55-1,2.61-1.62-4.64,22.2-33.6,46.86-59.24,50.61C309,105.37,269.05,90.87,253,57.38c-18.69,31.29-45.89,47.68-82.48,43.89C145.28,98.65,120.69,76.45,112,51.08Z"/><path d="M840.54,18.56c-.46,2.5-.3,5.32-1.46,7.44C812.54,74.65,765.5,92.6,720.57,72.78c-15.52-6.85-26.3-7-41.49-.72C635.6,90,587.38,74.36,561.71,36.23c-2.08-3.09-2.24-7.46-3.29-11.24,3.09,1.94,6.79,3.31,9.17,5.9C579,43.33,597.16,46,615.44,38.52c12.66-5.19,25.72-9.45,38.77-13.6,4.69-1.49,9.87-1.77,14.85-2,9-.42,17.38,1.22,24.06,8.15,3.54,3.67,7.75,4.79,11.8.55,12.26-12.84,26.24-11.21,40.78-5,7.8,3.35,15.43,7.16,23.39,10.11A64.21,64.21,0,0,0,808.21,39a42.18,42.18,0,0,0,23.93-15.86c1.66-2.23,3.95-4,5.94-6Z"/><path d="M616.87,867.51c-5.37-4.58-10.57-10-16.71-14-11.64-7.56-24.4-7.6-37.57-4-14,3.81-28,7.71-42.19,10.26-16.82,3-33,1.48-45.41-13-15.13,17-34.07,15.53-53.18,11.88a225.74,225.74,0,0,1-29.71-7.76c-23.36-7.87-42.78-3.09-58.1,16.82-2.91-16.45,12.16-36.52,30.41-39.9,9.05-1.67,18.61-1,27.49-3.16,9.29-2.31,19.31-5.12,26.74-10.73,16.64-12.57,33.24-11.9,50.74-3.84,4,1.84,6.91,2,11,.08C497.83,802,514.67,800.89,531,814c12.19,9.8,27.15,12,42.49,12.19C599.1,826.57,615.91,842.91,616.87,867.51Z"/><path d="M618.33,321.56c-19,24.17-38.13,45-68.52,50.36-16.37,2.91-31.43-.79-44.79-10.37-20.25-14.51-40.59-16.06-62.19-2.85-33.43,20.44-64.75,15.6-90.48-14.15-7.56-8.74-13.5-18.89-20.18-28.39L334,314.7a9.59,9.59,0,0,1,1.62,1.56c11.93,18.65,29.22,23.12,49.62,18.19,9.2-2.22,18.13-5.53,27.15-8.47,22-7.19,42.85-6.54,60.6,8,8.81-3.77,16.7-8.23,25.17-10.52,14.37-3.88,28-1.13,41,6.72,18.85,11.43,38.81,12.36,58.92,3.6C604.56,331,610.35,326.44,618.33,321.56Z"/><path d="M134.31,515.34c-13.78-20.24-25.29-41.43-22.61-67.23,1.41-13.59,7.22-25.31,17.87-33.57,29.46-22.83,63.33-29.28,99.13-21.84,22.69,4.71,32.16,33.3,18.6,52.41-2.63,3.7-8.34,6.56-13,7.16-6,.77-12.46-.54-18.48-2-20.94-4.93-41.88-3.71-62.52.64-26.17,5.51-35,22.2-26.27,47.36C129.08,504.12,131.87,509.67,134.31,515.34Z"/><path d="M375.5,515.62c3.06-9.34,7.2-18.49,8.93-28.08,3.11-17.16-4.35-29.46-21.32-34.57-22.6-6.81-45.75-7.52-69-2.9a106.55,106.55,0,0,1-17,2.44c-10.29.35-16.08-4.43-18.92-14.58-7.63-27.25,5.7-46.21,35.2-48a139.61,139.61,0,0,1,69.33,13.23c29.84,14.26,41.61,40.51,32,72.22-4.3,14.13-11.58,27.35-17.51,41Z"/><path d="M816.6,217.39c4.6-5,9.94-4.64,15.32-3.25,5.16,1.33,7.56,4.89,8.37,10.24,1.63,10.78-3,18.41-11.35,24.32-12.42,8.81-26.88,11.87-41.52,14-19,2.73-37.94,2.87-56.24-4.12-12.51-4.78-22.81-12.4-29.48-24.3-5.52-9.85-.16-19.9,11.27-20.81,11.91-1,22.68,2.73,32.76,8.83,18,10.9,37,19.48,58.52,18.05,8.48-.56,17-3.57,25-6.73,2.9-1.15,4.36-6,6.48-9.11-2.79-1.78-5.4-4.06-8.43-5.19S820.54,218,816.6,217.39Z"/><path d="M579.82,217.32c-5,.87-9.08,1.08-12.78,2.4-2.52.9-6.31,3.4-6.27,5.12.05,2.7,2.27,6.86,4.59,7.75,8.52,3.26,17.34,7,26.27,7.69,21.58,1.67,40.2-7.71,58.79-17.58,9-4.77,19.54-7,29.63-9.2,6.13-1.35,11.78,1.42,15.29,7.29s1,11-2.31,16c-9.79,14.72-24.07,22.35-40.95,25.37a130.38,130.38,0,0,1-78.46-9.64c-8.21-3.72-15.2-9.32-17.35-18.57-1.47-6.3-2.21-13.47,4.14-17.78C566.33,212.12,572.91,211.58,579.82,217.32Z"/></svg>